<?xml version="1.0" encoding="UTF-8" standalone="no"?>
<!-- Generator: Adobe Illustrator 15.1.0, SVG Export Plug-In  -->

<svg
   xmlns:dc="http://purl.org/dc/elements/1.1/"
   xmlns:cc="http://creativecommons.org/ns#"
   xmlns:rdf="http://www.w3.org/1999/02/22-rdf-syntax-ns#"
   xmlns:svg="http://www.w3.org/2000/svg"
   xmlns="http://www.w3.org/2000/svg"
   xmlns:sodipodi="http://sodipodi.sourceforge.net/DTD/sodipodi-0.dtd"
   xmlns:inkscape="http://www.inkscape.org/namespaces/inkscape"
   version="1.1"
   x="0px"
   y="0px"
   width="60px"
   height="60px"
   viewBox="0 0 60 60"
   overflow="visible"
   enable-background="new 0 0 60 60"
   xml:space="preserve"
   id="svg2"
   inkscape:version="0.91 r13725"
   sodipodi:docname="HelloWorldBase.svg"><metadata
     id="metadata19"><rdf:RDF><cc:Work
         rdf:about=""><dc:format>image/svg+xml</dc:format><dc:type
           rdf:resource="http://purl.org/dc/dcmitype/StillImage" /></cc:Work></rdf:RDF></metadata><sodipodi:namedview
     pagecolor="#ffffff"
     bordercolor="#666666"
     borderopacity="1"
     objecttolerance="10"
     gridtolerance="10"
     guidetolerance="10"
     inkscape:pageopacity="0"
     inkscape:pageshadow="2"
     inkscape:window-width="1280"
     inkscape:window-height="972"
     id="namedview17"
     showgrid="false"
     inkscape:zoom="3.9333333"
     inkscape:cx="30"
     inkscape:cy="30"
     inkscape:window-x="-8"
     inkscape:window-y="-8"
     inkscape:window-maximized="1"
     inkscape:current-layer="svg2" /><defs
     id="defs4" /><g
     id="_x3C_Slice_x3E__2_"><rect
       fill="none"
       width="60"
       height="60"
       id="rect7" /></g><g
     id="g9"><g
       id="g11"><path
         d="M43.304,2c-0.287,0.28-0.734,0.834-0.69,1.562    c0.068,1.058-1.458,1.777-1.458,1.777c-0.407,0.536-0.815,1.073-1.227,1.609c-0.595,1.252-1.2,2.507-1.815,3.768    c0,0-0.543-0.351-1.211-0.523c-0.668-0.174-0.73-1.967-0.731-1.967c0,0-0.592-1.789-1.154-2.863    c-0.562-1.076,0.213-1.255,0.213-1.255s1.192,0.539,2.522,1.071c1.332,0.528,1.913-0.897,1.912-0.897c0,0-0.524-1.246-1.062-2.281    H24.771c-0.302,0.777-0.674,1.643-1.028,2.216c-0.782,1.261-1.174,1.071-1.706,3.979c-0.539,2.907-1.208,2.355-1.757,3.993    c-0.548,1.639-2.45,2.166-2.45,2.166c-0.014,0.851-0.027,1.704-0.042,2.556c0.002,0,0.087,2.922,0.075,3.649    c-0.014,0.73,0.811,0.735,0.811,0.735c0.365-0.056,0.733-0.115,1.098-0.173c0.001,0,0.968-0.724,1.25-1.451    c0.28-0.729,0.138-0.182,0.683-0.181c0.544,0.002,0.805,1.642,0.805,1.642c-0.001-0.003,0.131,0.906-0.437,2.54    c-0.569,1.634-0.011,0.909-0.011,0.909c0.321,0.061,0.641,0.12,0.963,0.178c0,0,0.831-0.726,1.518-0.911    c0.688-0.185,1.787-1.098,1.786-1.098c0.184-0.364,0.366-0.727,0.547-1.09c0.001,0,0.273-1.452,0.27-2.721    c-0.003-1.271-0.411-1.268-1.223-2.358c-0.812-1.088-0.811-1.089-0.946-2.362c-0.136-1.273,0.267-1.272,0.931-2.18    c0.664-0.908,1.584-1.993,1.964-3.262c0.382-1.268,1.288-1.985,1.288-1.985c0.227,0.421,0.455,0.845,0.684,1.267    c0,0,0.023,1.267-0.23,1.99c-0.252,0.723-0.625,2.534-1.154,3.261c-0.529,0.729-0.662,0.909-0.791,1.817    c-0.128,0.908,0.416,1.811,0.416,1.811c0.272,0.181,0.543,0.36,0.814,0.54c0.001,0,1.214-0.372,2.017-0.741    c0.804-0.369,2.424-0.027,2.424-0.029c-0.216,0.424-0.434,0.849-0.652,1.271c-0.264,0.365-0.53,0.73-0.796,1.095    c0,0-1.35,0.38-2.298,0.752c-0.947,0.372-0.943,1.457-0.943,1.457s-0.542,0.91-0.954,1.819c-0.409,0.908-1.097,1.456-1.097,1.456    c-0.689,0.67-1.381,1.338-2.076,2.006c-0.599,0.005-1.195,0.006-1.794,0.011c0,0-0.822-0.542-1.369-0.906    c-0.127-0.079-0.919-3.268-0.919-3.269c-0.235,0.423-0.471,0.846-0.706,1.271c-0.11,1.148-0.221,2.299-0.334,3.446    c-0.37-0.003-0.739-0.005-1.108-0.007c-0.574,0.964-1.151,1.924-1.733,2.884c-0.717,0.836-1.439,1.67-2.165,2.501    c-0.482,0.535-0.967,1.066-1.453,1.597c-0.541,0.464-1.082,0.93-1.626,1.39c0.239,0.663,0.477,1.324,0.716,1.983    c-0.025,0.763-0.049,1.524-0.074,2.284c-0.001-0.004-1.05,0.312-3.942,0.558c-2.895,0.236-0.335,1.937-0.335,1.935    c-0.043,1.186-0.087,2.362-0.131,3.533c1.309,0.254,2.617,0.502,3.923,0.74c0.612,0.011,1.225,0.021,1.837,0.03    c0.71-0.31,1.418-0.621,2.125-0.937c0.017-0.532,0.032-1.068,0.048-1.604c0.193-0.643,0.385-1.289,0.578-1.934    c0,0,0.522,0.005,1.57-0.317c1.05-0.319,1.066-0.971,1.066-0.971c0.685,0.325,1.37,0.646,2.054,0.966    c0.419,0.643,0.838,1.284,1.258,1.923c0.244,0.746,0.488,1.491,0.733,2.231c-0.107,0.851-0.212,1.7-0.321,2.547    c0,0,1.01,1.564,1.837-0.349c0.824-1.919,1.853-1.313,1.854-1.313c-0.328-1.048-0.655-2.106-0.981-3.168    c-0.664-1.59-1.326-3.195-1.987-4.812c0,0,0.566,0.424,1.163,0.871c0.674,0.503,1.391,1.032,1.391,1.032    c0.512,0.418,1.023,0.837,1.536,1.255c0.863,0.083,1.725,0.164,2.587,0.242c0.435-0.229,0.869-0.457,1.302-0.688    c0,0,1.614-2.692,2.604-4.286c1.028-1.654,3.599,0.161,3.602,0.156c1.032,0.913,2.068,1.813,3.106,2.699    c-0.339,0.979-0.683,1.951-1.029,2.922c0-0.002-1.039,0.072-3.113-0.132c-2.072-0.209-1.296,0.069-3.109-0.163    c-0.739-0.099-1.231,0.049-1.559,0.342c-0.897,0.8-0.548,2.682-0.561,3.562c-0.022,1.582,0.494,1.87,0.495,1.87    c0,0,1.567-0.068,3.397-0.486c1.829-0.418,1.82,0.517,1.82,0.517c-0.181,0.845-0.365,1.686-0.549,2.522c0,0-0.808,1.6-2.644,1.703    S30.7,52.585,30.7,52.585c0,0.002-1.285-1.183-2.334-1.147c-1.046,0.041-2.406,2.259-2.407,2.254c0-0.001-2.07-1.166-5.463-1.756    c-3.396-0.601-0.479-1.562-0.187-2.829c0.295-1.267-1.536-1.257-1.537-1.259c-1.041-0.208-2.083-0.422-3.125-0.642    c-0.546,0.739-1.094,1.477-1.644,2.207c-1.139-0.013-2.279-0.033-3.419-0.06c-0.693-0.33-1.384-0.664-2.076-1.001    c-1.292-0.035-1.687,1.777-1.687,1.777c-0.502,1.868-1.005,3.717-1.508,5.539C5.314,55.68,4.639,56.745,3.872,58h48.67    c0.04-0.176,0.107-0.311,0.107-0.311s-0.862-0.525-1.58-0.919c-0.716-0.393-1.009,0.126-1.009,0.126    c-0.962,0.063-1.923,0.123-2.882,0.174c0,0.005-1.418-1.466-1.698-2.261c-0.278-0.786,0.025-3.131,0.024-3.133    c0.809,0.362,1.619,0.719,2.43,1.07c0,0.007,2.188,2.403,3.653,2.588c3.423,0.45,4.588-0.577,5.599-0.079    c0.251,0.121,0.527,0.231,0.813,0.345V2H43.304z M4.704,30.225c0.244-0.223,0.435-0.56,0.583-1.016    c0.028-0.085,0.367-0.481,0.472-0.643c-0.678,1.647-1.486,3.526-1.059,3.747c0.652,0.346,0.694,0.124,1.773,0.086    c1.08-0.042,0.947-0.296,1.72-0.619c0.771-0.325,2.836,2.991,1.492-1.351c-1.335-4.356-1.671-5.353-1.675-5.35    c0,0,0.155-2.746-0.02-3.703c-0.172-0.957-0.259-1.438-0.259-1.438c-0.211-0.113-0.424-0.228-0.635-0.344    c0,0-1.315,0.463-1.402,1.839c-0.085,1.374,1.155,1.362,0.26,2.359c-0.897,0.997-1.239,0.936-1.97,1.959    c-0.728,1.021-1.549,1.562-1.634,2.924C2.266,30.04,1.4,29.881,2.743,30.358C3.616,30.666,4.251,30.639,4.704,30.225z     M6.521,26.436c-0.083,0.452-0.39,1.227-0.735,2.066c-0.015-0.012-0.104,0.052-0.343,0.267    C4.586,29.537,6.523,26.437,6.521,26.436z M3.966,6.965c0.001,0,1.35-1.611,0.023-1.851C3.024,4.941,2.646,4.995,2,4.945v3.989    c0.002,0,0.013-0.004,0.013-0.004C2.667,8.276,3.318,7.62,3.966,6.965z"
         id="path13"
         clip-rule="evenodd"
         fill-rule="evenodd"
         fill="#78BF4D" /></g></g><path
     fill-rule="evenodd"
     clip-rule="evenodd"
     fill="#78BF4D"
     d="M56,2H4C2.896,2,2,2.896,2,4v52c0,1.104,0.896,2,2,2h52  c1.104,0,2-0.896,2-2V4C58,2.896,57.104,2,56,2z M56,56H4V4h52V56z"
     id="path15" /><text
     xml:space="preserve"
     style="font-style:normal;font-variant:normal;font-weight:bold;font-stretch:normal;font-size:15px;line-height:125%;font-family:sans-serif;-inkscape-font-specification:'sans-serif, Bold';text-align:start;letter-spacing:0px;word-spacing:0px;writing-mode:lr-tb;text-anchor:start;fill:#f7931e;fill-opacity:1;stroke:none;stroke-width:1px;stroke-linecap:butt;stroke-linejoin:miter;stroke-opacity:1"
     x="5.7666016"
     y="26.743652"
     id="text3347"
     sodipodi:linespacing="125%"><tspan
       sodipodi:role="line"
       id="tspan3349"
       x="5.7666016"
       y="26.743652">Hello</tspan><tspan
       sodipodi:role="line"
       x="5.7666016"
       y="45.493652"
       id="tspan3351">World</tspan></text>
</svg>